<?xml version="1.0" encoding="UTF-8" standalone="no"?><!DOCTYPE svg PUBLIC "-//W3C//DTD SVG 1.1//EN" "http://www.w3.org/Graphics/SVG/1.1/DTD/svg11.dtd"><svg width="100%" height="100%" viewBox="0 0 16 16" version="1.1" xmlns="http://www.w3.org/2000/svg" xmlns:xlink="http://www.w3.org/1999/xlink" xml:space="preserve" style="fill-rule:evenodd;clip-rule:evenodd;stroke-linejoin:round;stroke-miterlimit:1.41421;"><rect x="1" y="1" width="14" height="14" style="fill:#fff;fill-rule:nonzero;"/><path d="M1,1l0,14l14,0l0,-14l-14,0Zm1,1l12,0l0,12l-12,0l0,-12Z" style="fill:#999;fill-rule:nonzero;"/><rect x="3" y="3" width="10" height="1" style="fill:#666;fill-rule:nonzero;"/><rect x="3" y="12" width="10" height="1" style="fill:#b9b9b9;fill-rule:nonzero;"/><rect x="3" y="5" width="10" height="6" style="fill:#ff5656;fill-rule:nonzero;"/><path d="M9.25,10l-5.25,0l1.313,-1.75l1.312,-1.75l2.625,3.5Z" style="fill:#fff;fill-rule:nonzero;"/><path d="M11,10l-4.667,0l1.167,-1.167l1.167,-1.166l2.333,2.333Z" style="fill:#fff;fill-rule:nonzero;"/><circle cx="11" cy="7" r="1" style="fill:#fff;"/></svg>